<?xml version="1.0" standalone="no"?>
<!DOCTYPE svg PUBLIC "-//W3C//DTD SVG 20010904//EN"
 "http://www.w3.org/TR/2001/REC-SVG-20010904/DTD/svg10.dtd">
<svg version="1.0" xmlns="http://www.w3.org/2000/svg"
 width="164.000000pt" height="181.000000pt" viewBox="0 0 164.000000 181.000000"
 preserveAspectRatio="xMidYMid meet">

<g transform="translate(0.000000,181.000000) scale(0.100000,-0.100000)"
fill="#000000" stroke="none">
<path d="M723 1629 c-97 -62 -118 -233 -43 -338 40 -54 81 -75 139 -68 95 11
166 140 141 256 -30 140 -142 211 -237 150z"/>
<path d="M1270 1293 c-25 -9 -90 -55 -90 -64 0 -5 -9 -18 -19 -28 -21 -21 -51
-109 -51 -149 0 -68 53 -160 86 -148 8 3 12 2 9 -4 -13 -21 89 -15 125 7 84
52 130 132 130 223 0 69 -15 106 -60 144 -31 25 -88 34 -130 19z"/>
<path d="M211 1272 c-137 -73 -67 -328 104 -377 69 -20 110 -9 155 41 27 31
30 42 30 97 -1 104 -54 191 -145 233 -60 29 -99 30 -144 6z"/>
<path d="M705 975 c-69 -25 -111 -84 -140 -195 -26 -99 -59 -155 -152 -253
-47 -49 -92 -105 -100 -125 -20 -49 -20 -115 1 -147 52 -80 197 -96 273 -31
26 23 28 29 33 139 5 110 7 117 36 154 57 71 146 93 222 54 76 -39 102 -91
102 -205 0 -47 5 -97 12 -111 20 -44 74 -70 143 -69 104 1 167 51 167 131 0
72 -24 117 -110 207 -105 108 -116 126 -156 250 -40 123 -71 170 -130 197 -49
22 -144 24 -201 4z"/>
<path d="M864 375 c-8 -21 2 -45 19 -45 20 0 40 27 33 45 -7 19 -45 20 -52 0z"/>
</g>
</svg>
